<?xml version="1.0" encoding="UTF-8"?>
<svg width="128px" height="128px" viewBox="0 0 128 128" version="1.1" xmlns="http://www.w3.org/2000/svg" xmlns:xlink="http://www.w3.org/1999/xlink">
    <!-- Generator: Sketch 49.3 (51167) - http://www.bohemiancoding.com/sketch -->
    <title>icon</title>
    <desc>Created with Sketch.</desc>
    <defs>
        <polygon id="path-1" points="0.466595588 0.00513777778 68.5513309 0.00513777778 68.5513309 67.5409698 0.466595588 67.5409698"></polygon>
    </defs>
    <g id="icon" stroke="none" stroke-width="1" fill="none" fill-rule="evenodd">
        <rect id="Rectangle" fill="#001B38" x="0" y="0" width="128" height="128" rx="10"></rect>
        <g id="logo" transform="translate(30.000000, 30.000000)">
            <g id="Group-25">
                <mask id="mask-2" fill="white">
                    <use xlink:href="#path-1"></use>
                </mask>
                <g id="Clip-24"></g>
                <path d="M6.55647374,0.00488088889 L6.79720063,0.00488088889 C8.72045483,0.00488088889 10.4157868,0.929680889 11.8857574,2.77928089 C12.4209905,3.50113867 18.9795179,11.862872 31.5639002,27.8644809 C33.5127637,30.3023564 34.5038414,31.5354231 34.5294506,31.561112 C43.6668288,20.0113876 51.4674044,10.1083209 57.9337384,1.85448089 C59.26798,0.621414222 60.6841712,0.00488088889 62.182312,0.00488088889 L62.5818162,0.00488088889 C64.6382384,0.00488088889 66.3489359,1.02216089 67.7113477,3.05928978 C68.2721901,4.07656978 68.5513309,5.09641867 68.5513309,6.11369867 C68.5513309,7.88366311 67.7395179,9.63821422 66.108209,11.3824898 L38.8574128,45.9931298 C37.5487805,47.1722498 36.10698,47.7630942 34.5294506,47.7630942 C32.2579107,47.7630942 30.4422153,46.7175564 29.0772426,44.6264809 L13.0100032,24.2860187 L13.0100032,61.108472 C13.0100032,64.1654498 11.5912511,66.241112 8.76142962,67.3405964 C8.3593645,67.4741787 8.06485819,67.5409698 7.88047164,67.5409698 L5.87526786,67.5409698 C4.88675105,67.5409698 3.73689601,66.9629698 2.42826366,65.8121076 C1.25279937,64.5507831 0.666347689,63.0377076 0.666347689,61.270312 L0.666347689,7.84256089 L0.466595588,6.19590311 C0.466595588,3.863352 1.57291492,2.02916533 3.79067542,0.688205333 C4.69980357,0.230943111 5.62173634,0.00488088889 6.55647374,0.00488088889" id="Fill-23" fill="#F1F1F2" mask="url(#mask-2)"></path>
            </g>
            <path d="M62.8116232,56 L63.2712091,56 C65.1683367,56 66.8116232,56.8970063 68.2064128,58.6910188 C68.7354709,59.6150581 69,60.5759607 69,61.5761841 C69,63.5495979 67.9418838,65.1519214 65.8229793,66.3831546 C64.8744155,66.7935657 64.011356,67 63.2311289,67 L62.7688711,67 C60.7354709,67 59.0627923,66.0489276 57.750835,64.1516979 C57.251169,63.2546917 57,62.3576854 57,61.4606792 C57,59.4872654 58.0313961,57.8972297 60.0941884,56.6930295 C61.0133601,56.2310098 61.9191717,56 62.8116232,56" id="Fill-26" fill="#1E8DE0"></path>
        </g>
    </g>
</svg>