<?xml version="1.0" encoding="utf-8"?>
<!-- Generator: Adobe Illustrator 23.0.0, SVG Export Plug-In . SVG Version: 6.00 Build 0)  -->
<svg version="1.1" id="Layer_1" xmlns="http://www.w3.org/2000/svg" xmlns:xlink="http://www.w3.org/1999/xlink" x="0px" y="0px"
	 viewBox="0 0 300 300" style="enable-background:new 0 0 300 300;" xml:space="preserve">
<style type="text/css">
	.st0{fill:#4C4C4C;}
</style>
<g>
	<path d="M78.8,192.3V15.5c0-8,6.5-14.5,14.5-14.5h115c8,0,14.5,6.5,14.5,14.5v61.8c0,3.8-1.5,7.5-4.2,10.3l-53.3,53.3
		c-9.1,9.1-24.7,2.7-24.7-10.3v-20.7c0-3.8,1.5-7.5,4.2-10.3l32.7-32.7c2.7-2.7,4.2-6.4,4.2-10.2v0c0-8-6.5-14.5-14.5-14.5h-32.7
		c-8,0-14.5,6.5-14.5,14.5v135.6c0,8-6.5,14.5-14.5,14.5H93.3C85.3,206.8,78.8,200.3,78.8,192.3z"/>
</g>
<g>
	<g>
		<path class="st0" d="M22.6,295.8l-3.6-2.7c-0.5-0.3-0.7-0.9-0.7-1.4v-11.8c0-1,0.8-1.8,1.8-1.8h13.1c1,0,1.8,0.8,1.8,1.8v0
			c0,1-0.8,1.8-1.8,1.8h-8.3c-1,0-1.8,0.8-1.8,1.8v6.4c0,0.6,0.3,1.1,0.7,1.4l1.2,0.9c0.3,0.2,0.7,0.4,1.1,0.4h7.1
			c1,0,1.8,0.8,1.8,1.8v0c0,1-0.8,1.8-1.8,1.8h-9.5C23.3,296.2,22.9,296.1,22.6,295.8z"/>
		<path class="st0" d="M49.4,293.8v-2.4c0-0.4-0.2-0.7-0.5-1l-3-2.3c-0.6-0.5-0.6-1.4,0-1.9l3-2.3c0.3-0.2,0.5-0.6,0.5-1l0,0
			c0-0.7-0.5-1.2-1.2-1.2h-4.8c-0.7,0-1.2,0.5-1.2,1.2v12.1c0,0.7-0.5,1.2-1.2,1.2h-2.4c-0.7,0-1.2-0.5-1.2-1.2v-15.7
			c0-0.7,0.5-1.2,1.2-1.2h14.3c0.7,0,1.2,0.5,1.2,1.2v5.5c0,0.4-0.2,0.7-0.5,1l-0.6,0.5c-0.6,0.5-0.6,1.4,0,1.9l0.6,0.5
			c0.3,0.2,0.5,0.6,0.5,1v6c0,1-1.2,1.6-2,0.9l-2.3-1.9C49.6,294.5,49.4,294.2,49.4,293.8z"/>
		<path class="st0" d="M62.5,293.4v-2.5c0-0.6-0.3-1.2-0.8-1.6l-4.4-3.3c-0.5-0.4-0.8-1-0.8-1.6v-4.3c0-1.1,0.9-2,2-2h0.8
			c1.1,0,2,0.9,2,2v2.4c0,0.6,0.3,1.2,0.8,1.6l1.6,1.2l0,0l0,0c0.7,0.5,1.7,0.5,2.4,0l1.6-1.2c0.5-0.4,0.8-1,0.8-1.6v-2.4
			c0-1.1,0.9-2,2-2h0.8c1.1,0,2,0.9,2,2v4.3c0,0.6-0.3,1.2-0.8,1.6l-4.4,3.3c-0.5,0.4-0.8,1-0.8,1.6v3.1c0,1.7-1.9,2.6-3.2,1.6
			l-0.8-0.6C62.8,294.6,62.5,294,62.5,293.4z"/>
		<path class="st0" d="M75.7,296.2v-16.9c0-0.7,0.5-1.2,1.2-1.2h14.3c0.7,0,1.2,0.5,1.2,1.2v5.5c0,0.4-0.2,0.7-0.5,1l-7.2,5.5
			c-0.8,0.6-1.9,0-1.9-1v-2.4c0-0.4,0.2-0.7,0.5-1l3.8-2.9c0.3-0.2,0.5-0.6,0.5-1l0,0c0-0.7-0.5-1.2-1.2-1.2h-4.8
			c-0.7,0-1.2,0.5-1.2,1.2v12.1c0,0.7-0.5,1.2-1.2,1.2h-3.5V296.2z"/>
		<path class="st0" d="M100.7,293.5v-10c0-1-0.8-1.8-1.8-1.8h-2.4c-1,0-1.8-0.8-1.8-1.8v0c0-1,0.8-1.8,1.8-1.8h13.1
			c1,0,1.8,0.8,1.8,1.8v0c0,1-0.8,1.8-1.8,1.8h-2.4c-1,0-1.8,0.8-1.8,1.8v10.9c0,1.5-1.7,2.3-2.9,1.4l-1.1-0.8
			C101,294.6,100.7,294.1,100.7,293.5z"/>
		<path class="st0" d="M117.7,295.5l-2.4-1.8c-0.9-0.7-1.4-1.7-1.4-2.9v-9.1c0-2,1.6-3.6,3.6-3.6h9.5c2,0,3.6,1.6,3.6,3.6v10.9
			c0,2-1.6,3.6-3.6,3.6h-7.1C119.1,296.2,118.4,295.9,117.7,295.5z M125.8,289v-3.7c0-2-1.6-3.6-3.6-3.6h0c-2,0-3.6,1.6-3.6,3.6v3.7
			c0,1.1,0.5,2.2,1.4,2.9h0c0.6,0.5,1.4,0.7,2.2,0.7h0C124.2,292.6,125.8,291,125.8,289z"/>
		<path class="st0" d="M137.3,295.8l-3.6-2.7c-0.5-0.3-0.7-0.9-0.7-1.4v-11.8c0-1,0.8-1.8,1.8-1.8h13.1c1,0,1.8,0.8,1.8,1.8v0
			c0,1-0.8,1.8-1.8,1.8h-8.3c-1,0-1.8,0.8-1.8,1.8v6.4c0,0.6,0.3,1.1,0.7,1.4l1.2,0.9c0.3,0.2,0.7,0.4,1.1,0.4h7.2
			c1,0,1.8,0.8,1.8,1.8v0c0,1-0.8,1.8-1.8,1.8h-9.6C138,296.2,137.6,296.1,137.3,295.8z"/>
		<path class="st0" d="M156.3,295.7l-3.2-2.4c-0.6-0.5-1-1.2-1-1.9v-10.9c0-1.3,1.1-2.4,2.4-2.4h0c1.3,0,2.4,1.1,2.4,2.4v9.1
			c0,0.8,0.4,1.5,1,1.9l0.8,0.6c0.4,0.3,0.9,0.5,1.4,0.5h1.6c1.3,0,2.4-1.1,2.4-2.4v-9.7c0-1.3,1.1-2.4,2.4-2.4h0
			c1.3,0,2.4,1.1,2.4,2.4v13.3c0,1.3-1.1,2.4-2.4,2.4h-8.8C157.2,296.2,156.7,296,156.3,295.7z"/>
		<path class="st0" d="M183.2,293.8v-2.4c0-0.4-0.2-0.7-0.5-1l-3-2.3c-0.6-0.5-0.6-1.4,0-1.9l3-2.3c0.3-0.2,0.5-0.6,0.5-1l0,0
			c0-0.7-0.5-1.2-1.2-1.2h-4.8c-0.7,0-1.2,0.5-1.2,1.2v12.1c0,0.7-0.5,1.2-1.2,1.2h-2.4c-0.7,0-1.2-0.5-1.2-1.2v-15.7
			c0-0.7,0.5-1.2,1.2-1.2h14.4c0.7,0,1.2,0.5,1.2,1.2v5.5c0,0.4-0.2,0.7-0.5,1l-0.6,0.5c-0.6,0.5-0.6,1.4,0,1.9l0.6,0.5
			c0.3,0.2,0.5,0.6,0.5,1v6c0,1-1.2,1.6-1.9,0.9l-2.4-1.9C183.4,294.5,183.2,294.2,183.2,293.8z"/>
		<path class="st0" d="M202.3,293.8v-2.4c0-0.4-0.2-0.7-0.5-1l-3-2.3c-0.6-0.5-0.6-1.4,0-1.9l3-2.3c0.3-0.2,0.5-0.6,0.5-1l0,0
			c0-0.7-0.5-1.2-1.2-1.2h-4.8c-0.7,0-1.2,0.5-1.2,1.2v12.1c0,0.7-0.5,1.2-1.2,1.2h-2.4c-0.7,0-1.2-0.5-1.2-1.2v-15.7
			c0-0.7,0.5-1.2,1.2-1.2h14.3c0.7,0,1.2,0.5,1.2,1.2v5.5c0,0.4-0.2,0.7-0.5,1l-0.6,0.5c-0.6,0.5-0.6,1.4,0,1.9l0.6,0.5
			c0.3,0.2,0.5,0.6,0.5,1v6c0,1-1.2,1.6-2,0.9l-2.3-1.9C202.5,294.5,202.3,294.2,202.3,293.8z"/>
		<path class="st0" d="M209.5,296.2v-16.3c0-1,0.8-1.8,1.8-1.8h13.1c1,0,1.8,0.8,1.8,1.8v0c0,1-0.8,1.8-1.8,1.8h-8.3
			c-1,0-1.8,0.8-1.8,1.8v0c0,1,0.8,1.8,1.8,1.8h4.7c1.7,0,2.5,2.2,1.1,3.2h0c-0.3,0.2-0.7,0.4-1.1,0.4H216c-1,0-1.8,0.8-1.8,1.8v0
			c0,1,0.8,1.8,1.8,1.8h7.2c0.4,0,0.8,0.1,1.1,0.4h0c1.4,1,0.6,3.2-1.1,3.2L209.5,296.2L209.5,296.2z"/>
		<path class="st0" d="M228.6,293.8V283c0-2,2.3-3.1,3.9-1.9l4.2,3.2c1.6,1.2,3.9,0.1,3.9-1.9v-1.8c0-1.3,1.1-2.4,2.4-2.4h0
			c1.3,0,2.4,1.1,2.4,2.4v10.8c0,2-2.3,3.1-3.9,1.9l-4.2-3.2c-1.6-1.2-3.9-0.1-3.9,1.9v1.8c0,1.3-1.1,2.4-2.4,2.4h0
			C229.7,296.2,228.6,295.1,228.6,293.8z"/>
		<path class="st0" d="M252,295.8l-3.6-2.7c-0.5-0.3-0.7-0.9-0.7-1.4v-11.8c0-1,0.8-1.8,1.8-1.8h13.1c1,0,1.8,0.8,1.8,1.8v0
			c0,1-0.8,1.8-1.8,1.8h-8.3c-1,0-1.8,0.8-1.8,1.8v6.4c0,0.6,0.3,1.1,0.7,1.4l1.2,0.9c0.3,0.2,0.7,0.4,1.1,0.4h7.2
			c1,0,1.8,0.8,1.8,1.8v0c0,1-0.8,1.8-1.8,1.8h-9.6C252.7,296.2,252.3,296.1,252,295.8z"/>
		<path class="st0" d="M272.8,293.4v-2.5c0-0.6-0.3-1.2-0.8-1.6l-4.4-3.3c-0.5-0.4-0.8-1-0.8-1.6v-4.3c0-1.1,0.9-2,2-2h0.8
			c1.1,0,2,0.9,2,2v2.4c0,0.6,0.3,1.2,0.8,1.6l1.6,1.2l0,0l0,0c0.7,0.5,1.7,0.5,2.4,0l1.6-1.2c0.5-0.4,0.8-1,0.8-1.6v-2.4
			c0-1.1,0.9-2,2-2h0.8c1.1,0,2,0.9,2,2v4.3c0,0.6-0.3,1.2-0.8,1.6l-4.4,3.3c-0.5,0.4-0.8,1-0.8,1.6v3.1c0,1.7-1.9,2.6-3.2,1.6
			l-0.8-0.6C273.1,294.6,272.8,294,272.8,293.4z"/>
	</g>
</g>
<g>
	<g>
		<path class="st0" d="M42.1,215.7h37.8c3,0,4.4,3.6,2.3,5.7l-33.6,33.6c-0.6,0.6-1,1.5-1,2.3v6.1c0,0.9-0.4,1.7-1,2.3l-2.3,2.3
			c-2.1,2.1-5.7,0.6-5.7-2.4l0-46.7C38.8,217.2,40.3,215.7,42.1,215.7z M57.6,224.6H51c-1.8,0-3.3,1.5-3.3,3.3v6.6
			c0,3,3.6,4.4,5.7,2.3l6.6-6.6C62,228.2,60.5,224.6,57.6,224.6z"/>
		<path class="st0" d="M55.1,257.5l36.2-36.2c2.1-2.1,5.7-0.6,5.7,2.3v36.2c0,1.8-1.5,3.3-3.3,3.3h-2c-1.8,0-3.3-1.5-3.3-3.3v-14.6
			c0-3-3.6-4.4-5.7-2.3l-6,6c-2.1,2.1-0.6,5.7,2.3,5.7h1.7c1.8,0,3.3,1.5,3.3,3.3v2c0,1.8-1.5,3.3-3.3,3.3H57.4
			C54.5,263.2,53,259.6,55.1,257.5z"/>
		<path class="st0" d="M125.2,257.1v-6.8c0-0.9-0.4-1.7-1-2.3l-6.3-6.3c-1.3-1.3-1.3-3.4,0-4.7l6.3-6.3c0.6-0.6,1-1.5,1-2.3v0
			c0-1.8-1.5-3.3-3.3-3.3h-7.7c-1.8,0-3.3,1.5-3.3,3.3v31.6c0,1.8-1.5,3.3-3.3,3.3h-3c-1.8,0-3.3-1.5-3.3-3.3v-41.2
			c0-1.8,1.5-3.3,3.3-3.3h26.9c1.8,0,3.3,1.5,3.3,3.3v14.4c0,0.9-0.4,1.7-1,2.3l-1.5,1.5c-1.3,1.3-1.3,3.4,0,4.7l1.5,1.5
			c0.6,0.6,1,1.5,1,2.3V260c0,3-3.6,4.4-5.7,2.4l-3-2.9C125.6,258.9,125.2,258,125.2,257.1z"/>
		<path class="st0" d="M139.5,259.9v-41.2c0-1.8,1.5-3.3,3.3-3.3h3c1.8,0,3.3,1.5,3.3,3.3v41.2c0,1.8-1.5,3.3-3.3,3.3h-3
			C141,263.2,139.5,261.7,139.5,259.9z M163.4,257.1v-6.8c0-0.9-0.4-1.7-1-2.3l-6.3-6.3c-1.3-1.3-1.3-3.4,0-4.7l6.3-6.3
			c0.6-0.6,1-1.5,1-2.3v-9.6c0-1.8,1.5-3.3,3.3-3.3h3c1.8,0,3.3,1.5,3.3,3.3v14.4c0,0.9-0.4,1.7-1,2.3l-1.5,1.5
			c-1.3,1.3-1.3,3.4,0,4.7l1.5,1.5c0.6,0.6,1,1.5,1,2.3V260c0,3-3.6,4.4-5.7,2.4l-3-2.9C163.8,258.9,163.4,258,163.4,257.1z"/>
		<path class="st0" d="M177.7,259.9v-41.2c0-1.8,1.5-3.3,3.3-3.3h3c1.8,0,3.3,1.5,3.3,3.3v41.2c0,1.8-1.5,3.3-3.3,3.3h-3
			C179.2,263.2,177.7,261.7,177.7,259.9z"/>
		<path class="st0" d="M192.1,259.9v-36.5c0-3,3.6-4.4,5.7-2.3l12.6,12.6c2.1,2.1,5.7,0.6,5.7-2.3v-12.6c0-1.8,1.5-3.3,3.3-3.3h3
			c1.8,0,3.3,1.5,3.3,3.3v36.5c0,3-3.6,4.4-5.7,2.3L207.4,245c-2.1-2.1-5.7-0.6-5.7,2.3v12.6c0,1.8-1.5,3.3-3.3,3.3h-3
			C193.6,263.2,192.1,261.7,192.1,259.9z"/>
		<path class="st0" d="M239.8,263.2l-8.6-8.6c-0.6-0.6-1-1.5-1-2.3v-33.5c0-1.8,1.5-3.3,3.3-3.3h27c2.9,0,4.4,3.5,2.4,5.6l-2.9,3
			c-0.6,0.6-1.5,1-2.4,1h-14.4c-1.8,0-3.3,1.5-3.3,3.3v19.2c0,0.9,0.4,1.7,1,2.3l2.9,2.9c0.6,0.6,1.5,1,2.3,1h4.9
			c1.8,0,3.3-1.5,3.3-3.3v-12.6c0-3,3.6-4.4,5.7-2.3l3,3c0.6,0.6,1,1.5,1,2.3V260c0,1.8-1.5,3.3-3.3,3.3h-20.8V263.2z"/>
	</g>
</g>
</svg>
