<?xml version="1.0" encoding="utf-8"?>
<!-- Generator: Adobe Illustrator 22.1.0, SVG Export Plug-In . SVG Version: 6.00 Build 0)  -->
<svg version="1.1" id="Layer_1" xmlns="http://www.w3.org/2000/svg" xmlns:xlink="http://www.w3.org/1999/xlink" x="0px" y="0px"
	 viewBox="0 0 300 300" style="enable-background:new 0 0 300 300;" xml:space="preserve">
<style type="text/css">
	.st0{fill:#4C4C4C;}
</style>
<g>
	<path d="M78.8,206.8V1h144v82.3l-82.3,82.3v-61.7l41.2-41.2V42.2h-61.7v164.6H78.8z"/>
</g>
<g>
	<g>
		<path class="st0" d="M23.1,296.2l-4.8-3.6v-14.5H35v3.6H23.1v9.1l2.4,1.8H35v3.6H23.1z"/>
		<path class="st0" d="M49.4,294.4v-3.6l-4.8-3.6l4.8-3.6v-1.8h-7.2v14.5h-4.8v-18.1h16.7v7.3l-2.4,1.8l2.4,1.8v9.1L49.4,294.4z"/>
		<path class="st0" d="M62.5,294.4v-4.5l-6-4.5v-7.3h4.8v5.4l2.4,1.8v0l1.2,0.9l3.6-2.7v-5.4h4.8v7.3l-6,4.5v8.2L62.5,294.4z"/>
		<path class="st0" d="M75.7,296.2v-18.1h16.7v7.3l-9.6,7.3v-5.4l4.8-3.6v-1.8h-7.2v14.5H75.7z"/>
		<path class="st0" d="M100.7,294.4v-12.7h-6v-3.6h16.7v3.6h-6v16.3L100.7,294.4z"/>
		<path class="st0" d="M118.7,296.2l-4.8-3.6v-14.5h16.7v18.1H118.7z M125.8,292.6v-10.9h-7.2v9.1l2.4,1.8H125.8z"/>
		<path class="st0" d="M137.8,296.2l-4.8-3.6v-14.5h16.7v3.6h-11.9v9.1l2.4,1.8h9.6v3.6H137.8z"/>
		<path class="st0" d="M156.9,296.2l-4.8-3.6v-14.5h4.8v12.7l2.4,1.8h4.8v-14.5h4.8v18.1H156.9z"/>
		<path class="st0" d="M183.2,294.4v-3.6l-4.8-3.6l4.8-3.6v-1.8H176v14.5h-4.8v-18.1H188v7.3l-2.4,1.8l2.4,1.8v9.1L183.2,294.4z"/>
		<path class="st0" d="M202.3,294.4v-3.6l-4.8-3.6l4.8-3.6v-1.8h-7.2v14.5h-4.8v-18.1h16.7v7.3l-2.4,1.8l2.4,1.8v9.1L202.3,294.4z"
			/>
		<path class="st0" d="M209.5,296.2v-18.1h16.7v3.6h-11.9v3.6h11.9l-4.8,3.6h-7.2v3.6h9.6l4.8,3.6H209.5z"/>
		<path class="st0" d="M228.6,296.2v-18.1l11.9,9.1v-9.1h4.8v18.1l-11.9-9.1v9.1H228.6z"/>
		<path class="st0" d="M252.5,296.2l-4.8-3.6v-14.5h16.7v3.6h-11.9v9.1l2.4,1.8h9.6v3.6H252.5z"/>
		<path class="st0" d="M272.8,294.4v-4.5l-6-4.5v-7.3h4.8v5.4l2.4,1.8v0l1.2,0.9l3.6-2.7v-5.4h4.8v7.3l-6,4.5v8.2L272.8,294.4z"/>
	</g>
</g>
<g>
	<g>
		<path class="st0" d="M38.8,215.7h49.1l-40.2,40.2v8.9l-8.9,8.9V215.7z M65.6,224.6H47.7v17.9L65.6,224.6z"/>
		<path class="st0" d="M49.4,263.2l47.5-47.5v47.5h-8.6v-25.9L71,254.6h13v8.6H49.4z"/>
		<path class="st0" d="M125.2,258.5v-9.6l-9.6-9.6l9.6-9.6V225h-14.3v38.2h-9.6v-47.8h33.5v19.1l-4.8,4.8l4.8,4.8V268L125.2,258.5z"
			/>
		<path class="st0" d="M139.5,263.2v-47.8h9.6v47.8H139.5z M163.4,258.5v-9.6l-9.6-9.6l9.6-9.6v-14.3h9.6v19.1l-4.8,4.8l4.8,4.8V268
			L163.4,258.5z"/>
		<path class="st0" d="M177.7,263.2v-47.8h9.6v47.8H177.7z"/>
		<path class="st0" d="M192.1,263.2v-47.8l23.9,23.9v-23.9h9.6v47.8l-23.9-23.9v23.9H192.1z"/>
		<path class="st0" d="M239.8,263.2l-9.6-9.6v-38.2h38.2L259,225h-19.1v23.9l4.8,4.8h9.6v-23.9l9.6,9.6v23.9H239.8z"/>
	</g>
</g>
</svg>
