<?xml version="1.0" encoding="utf-8"?>
<!-- Generator: Adobe Illustrator 22.1.0, SVG Export Plug-In . SVG Version: 6.00 Build 0)  -->
<svg version="1.1" id="Layer_1" xmlns="http://www.w3.org/2000/svg" xmlns:xlink="http://www.w3.org/1999/xlink" x="0px" y="0px"
	 viewBox="0 0 300 300" style="enable-background:new 0 0 300 300;" xml:space="preserve">
<style type="text/css">
	.st0{fill:none;stroke:#000000;stroke-width:14;stroke-miterlimit:10;}
	.st1{stroke:#000000;stroke-miterlimit:10;}
	.st2{fill:#4C4C4C;}
	.st3{font-family:'CooperBlack';}
	.st4{font-size:31.8823px;}
	.st5{font-size:13.7464px;}
	.st6{fill:none;}
</style>
<g>
	<g id="Layer_2_1_">
		<g>
			<path class="st0" d="M149.5,10.6"/>
			<path class="st0" d="M146.3,106.5"/>
			<g>
				<path class="st1" d="M121.3,191.4c0-5.7,4.6-10.3,10.4-10.3c5.7,0,10.4,4.6,10.4,10.3s-4.6,10.3-10.4,10.3
					C126,201.7,121.3,197.1,121.3,191.4z"/>
				<path class="st0" d="M63.6,53.1l100.1,0.6h2.6c29.9,0,54.2,23.7,54.2,52.9s-24.3,52.9-54.2,52.9h-2.4H139h-7.3v4.4v19.3"/>
				<path class="st0" d="M260.7,120.8"/>
			</g>
			<g>
				<path class="st0" d="M96.6,216.9v-6.6v-2v-80.8c0-4.1,3.9-3.5,3.9-3.5h59.7h5.5c10.7,0,19.4-7.8,19.4-17.5s-9.6-17.2-20.3-17.2
					h-2.6L108,89"/>
				<path class="st1" d="M89.8,89c0-5.7,4.6-10.3,10.4-10.3c5.7,0,10.4,4.6,10.4,10.3c0,5.7-4.6,10.3-10.4,10.3S89.8,94.7,89.8,89z"
					/>
			</g>
		</g>
		<ellipse class="st0" cx="150.7" cy="120.9" rx="110.4" ry="110.6"/>
	</g>
	<text transform="matrix(1.5787 0 0 1 23.3428 267.5566)" class="st2 st3 st4">PARKING</text>
	<text transform="matrix(1.1998 0 0 1 61.9004 291.6025)" class="st2 st3 st5">CRYPTOCURRENCY</text>
	<rect x="118.6" y="278.4" class="st6" width="5.7" height="6.6"/>
</g>
</svg>
