<?xml version="1.0" encoding="utf-8"?>
<!-- Generator: Adobe Illustrator 23.0.0, SVG Export Plug-In . SVG Version: 6.00 Build 0)  -->
<svg version="1.1" id="Layer_1" xmlns="http://www.w3.org/2000/svg" xmlns:xlink="http://www.w3.org/1999/xlink" x="0px" y="0px"
	 viewBox="0 0 440.8 145.7" style="enable-background:new 0 0 440.8 145.7;" xml:space="preserve">
<style type="text/css">
	.st0{fill:url(#SVGID_1_);}
	.st1{fill:#4C4C4C;}
</style>
<g>
	
		<linearGradient id="SVGID_1_" gradientUnits="userSpaceOnUse" x1="3.2" y1="74" x2="102.6" y2="74" gradientTransform="matrix(1 0 0 -1 0 147)">
		<stop  offset="0" style="stop-color:#CCE0F4"/>
		<stop  offset="6.405089e-02" style="stop-color:#C3DCF2"/>
		<stop  offset="0.1706" style="stop-color:#A9D2EE"/>
		<stop  offset="0.3066" style="stop-color:#80C2E7"/>
		<stop  offset="0.4649" style="stop-color:#47ACDE"/>
		<stop  offset="0.5674" style="stop-color:#1E9CD7"/>
		<stop  offset="0.8652" style="stop-color:#0075BE"/>
		<stop  offset="0.9944" style="stop-color:#005B97"/>
	</linearGradient>
	<path class="st0" d="M3.2,134V12c0-5.5,4.5-10,10-10h79.3c5.5,0,10,4.5,10,10v42.6c0,2.7-1.1,5.2-2.9,7.1L62.9,98.5
		c-6.3,6.3-17.1,1.8-17.1-7.1V77.2c0-2.7,1.1-5.2,2.9-7.1l22.5-22.5c1.9-1.9,2.9-4.4,2.9-7.1v0c0-5.5-4.5-10-10-10H41.6
		c-5.5,0-10,4.5-10,10V134c0,5.5-4.5,10-10,10h-8.3C7.7,144,3.2,139.5,3.2,134z"/>
</g>
<g>
	<g>
		<path class="st1" d="M107.5,128.3l-5.2-3.9c-0.6-0.4-0.9-1.1-0.9-1.8v-15.1c0-1.3,1-2.3,2.3-2.3h16.7c1.3,0,2.3,1,2.3,2.3v0
			c0,1.3-1,2.3-2.3,2.3h-10.6c-1.3,0-2.3,1-2.3,2.3v8.1c0,0.7,0.3,1.4,0.9,1.8l1.5,1.1c0.4,0.3,0.9,0.5,1.4,0.5h9.1
			c1.3,0,2.3,1,2.3,2.3v0c0,1.3-1,2.3-2.3,2.3L107.5,128.3L107.5,128.3z"/>
		<path class="st1" d="M141,125.1v-3.1c0-0.5-0.2-0.9-0.6-1.2l-3.9-2.9c-0.8-0.6-0.8-1.8,0-2.5l3.9-2.9c0.4-0.3,0.6-0.7,0.6-1.2v0
			c0-0.8-0.7-1.5-1.5-1.5h-6c-0.8,0-1.5,0.7-1.5,1.5v15.4c0,0.8-0.7,1.5-1.5,1.5h-3c-0.8,0-1.5-0.7-1.5-1.5v-20
			c0-0.8,0.7-1.5,1.5-1.5h18.2c0.8,0,1.5,0.7,1.5,1.5v6.9c0,0.5-0.2,0.9-0.6,1.2l-0.8,0.6c-0.8,0.6-0.8,1.8,0,2.4l0.8,0.6
			c0.4,0.3,0.6,0.7,0.6,1.2v7.7c0,1.3-1.4,2-2.5,1.2l-3-2.3C141.2,126.1,141,125.6,141,125.1z"/>
		<path class="st1" d="M157.7,124.7v-3.4c0-0.8-0.4-1.5-1-1.9l-5.7-4.3c-0.6-0.5-1-1.2-1-1.9v-5.6c0-1.3,1.1-2.4,2.4-2.4h1.2
			c1.3,0,2.4,1.1,2.4,2.4v3.3c0,0.8,0.4,1.5,1,1.9l2,1.6l0,0l0,0c0.9,0.6,2.1,0.6,2.9,0l2.2-1.7c0.6-0.5,1-1.2,1-1.9v-3.3
			c0-1.3,1.1-2.4,2.4-2.4h1.2c1.3,0,2.4,1.1,2.4,2.4v5.6c0,0.8-0.4,1.5-1,1.9l-5.7,4.3c-0.6,0.5-1,1.2-1,1.9v4.4c0,2-2.3,3.1-3.9,2
			l-1.2-0.9C158.1,126.2,157.7,125.4,157.7,124.7z"/>
		<path class="st1" d="M174.5,128.3v-21.6c0-0.8,0.7-1.5,1.5-1.5h18.2c0.8,0,1.5,0.7,1.5,1.5v6.9c0,0.5-0.2,0.9-0.6,1.2l-9.1,6.9
			c-1,0.8-2.5,0-2.5-1.2v-3.1c0-0.5,0.2-0.9,0.6-1.2l4.9-3.7c0.4-0.3,0.6-0.7,0.6-1.2v0c0-0.8-0.7-1.5-1.5-1.5h-6
			c-0.8,0-1.5,0.7-1.5,1.5v15.4c0,0.8-0.7,1.5-1.5,1.5L174.5,128.3L174.5,128.3z"/>
		<path class="st1" d="M206.4,124.8V112c0-1.3-1-2.3-2.3-2.3h-3c-1.3,0-2.3-1-2.3-2.3v0c0-1.3,1-2.3,2.3-2.3h16.7
			c1.3,0,2.3,1,2.3,2.3v0c0,1.3-1,2.3-2.3,2.3h-3c-1.3,0-2.3,1-2.3,2.3v13.9c0,1.9-2.2,3-3.7,1.8l-1.5-1.1
			C206.7,126.2,206.4,125.5,206.4,124.8z"/>
		<path class="st1" d="M228,127.4l-3.1-2.3c-1.1-0.9-1.8-2.2-1.8-3.6v-11.7c0-2.5,2-4.5,4.5-4.5h12.2c2.5,0,4.5,2,4.5,4.5v14
			c0,2.5-2,4.5-4.5,4.5h-9.1C229.7,128.3,228.8,128,228,127.4z M238.4,123.6v-9.4c0-2.5-2-4.5-4.5-4.5h0c-2.5,0-4.5,2-4.5,4.5v4.7
			c0,1.4,0.7,2.7,1.8,3.6l0,0c0.8,0.6,1.8,0.9,2.8,0.9L238.4,123.6L238.4,123.6z"/>
		<path class="st1" d="M253.6,128.3l-5.2-3.9c-0.6-0.4-0.9-1.1-0.9-1.8v-15.1c0-1.3,1-2.3,2.3-2.3h16.7c1.3,0,2.3,1,2.3,2.3v0
			c0,1.3-1,2.3-2.3,2.3h-10.6c-1.3,0-2.3,1-2.3,2.3v8.1c0,0.7,0.3,1.4,0.9,1.8l1.5,1.1c0.4,0.3,0.9,0.5,1.4,0.5h9.1
			c1.3,0,2.3,1,2.3,2.3v0c0,1.3-1,2.3-2.3,2.3L253.6,128.3L253.6,128.3z"/>
		<path class="st1" d="M277.9,128.3l-4.9-3.7c-0.8-0.6-1.2-1.5-1.2-2.4v-13.9c0-1.7,1.4-3.1,3-3.1h0c1.7,0,3,1.4,3,3.1v11.6
			c0,0.9,0.4,1.8,1.2,2.4l1,0.8c0.5,0.4,1.2,0.6,1.9,0.6h2c1.7,0,3-1.4,3-3.1v-12.4c0-1.7,1.4-3.1,3-3.1h0c1.7,0,3,1.4,3,3.1v17
			c0,1.7-1.4,3.1-3,3.1L277.9,128.3L277.9,128.3z"/>
		<path class="st1" d="M311.4,125.1v-3.1c0-0.5-0.2-0.9-0.6-1.2l-3.9-2.9c-0.8-0.6-0.8-1.8,0-2.5l3.9-2.9c0.4-0.3,0.6-0.7,0.6-1.2v0
			c0-0.8-0.7-1.5-1.5-1.5h-6c-0.8,0-1.5,0.7-1.5,1.5v15.4c0,0.8-0.7,1.5-1.5,1.5h-3c-0.8,0-1.5-0.7-1.5-1.5v-20
			c0-0.8,0.7-1.5,1.5-1.5H316c0.8,0,1.5,0.7,1.5,1.5v6.9c0,0.5-0.2,0.9-0.6,1.2l-0.8,0.6c-0.8,0.6-0.8,1.8,0,2.4l0.8,0.6
			c0.4,0.3,0.6,0.7,0.6,1.2v7.7c0,1.3-1.4,2-2.5,1.2l-3-2.3C311.6,126.1,311.4,125.6,311.4,125.1z"/>
		<path class="st1" d="M335.7,125.1v-3.1c0-0.5-0.2-0.9-0.6-1.2l-3.9-2.9c-0.8-0.6-0.8-1.8,0-2.5l3.9-2.9c0.4-0.3,0.6-0.7,0.6-1.2v0
			c0-0.8-0.7-1.5-1.5-1.5h-6c-0.8,0-1.5,0.7-1.5,1.5v15.4c0,0.8-0.7,1.5-1.5,1.5h-3c-0.8,0-1.5-0.7-1.5-1.5v-20
			c0-0.8,0.7-1.5,1.5-1.5h18.2c0.8,0,1.5,0.7,1.5,1.5v6.9c0,0.5-0.2,0.9-0.6,1.2l-0.8,0.6c-0.8,0.6-0.8,1.8,0,2.4l0.8,0.6
			c0.4,0.3,0.6,0.7,0.6,1.2v7.7c0,1.3-1.4,2-2.5,1.2l-3-2.3C335.9,126.1,335.7,125.6,335.7,125.1z"/>
		<path class="st1" d="M344.8,128.3v-20.8c0-1.3,1-2.3,2.3-2.3h16.7c1.3,0,2.3,1,2.3,2.3v0c0,1.3-1,2.3-2.3,2.3h-10.6
			c-1.3,0-2.3,1-2.3,2.3v0c0,1.3,1,2.3,2.3,2.3h6c2.2,0,3.1,2.8,1.4,4.1v0c-0.4,0.3-0.9,0.5-1.4,0.5h-6c-1.3,0-2.3,1-2.3,2.3v0
			c0,1.3,1,2.3,2.3,2.3h9.1c0.5,0,1,0.2,1.4,0.5v0c1.8,1.3,0.8,4.1-1.4,4.1h-17.5V128.3z"/>
		<path class="st1" d="M369.2,125.3v-13.9c0-2.5,2.9-4,4.9-2.4l5.4,4.1c2,1.5,4.9,0.1,4.9-2.4v-2.3c0-1.7,1.4-3.1,3-3.1h0
			c1.7,0,3,1.4,3,3.1v13.9c0,2.5-2.9,4-4.9,2.4l-5.4-4.1c-2-1.5-4.9-0.1-4.9,2.4v2.3c0,1.7-1.4,3.1-3,3.1h0
			C370.6,128.3,369.2,126.9,369.2,125.3z"/>
		<path class="st1" d="M399.6,128.3l-5.2-3.9c-0.6-0.4-0.9-1.1-0.9-1.8v-15.1c0-1.3,1-2.3,2.3-2.3h16.7c1.3,0,2.3,1,2.3,2.3v0
			c0,1.3-1,2.3-2.3,2.3h-10.6c-1.3,0-2.3,1-2.3,2.3v8.1c0,0.7,0.3,1.4,0.9,1.8l1.5,1.1c0.4,0.3,0.9,0.5,1.4,0.5h9.1
			c1.3,0,2.3,1,2.3,2.3v0c0,1.3-1,2.3-2.3,2.3L399.6,128.3L399.6,128.3z"/>
		<path class="st1" d="M425.5,124.6v-3.3c0-0.8-0.4-1.5-1-2l-5.6-4.3c-0.6-0.5-1-1.2-1-2v-5.5c0-1.4,1.1-2.5,2.5-2.5h1.1
			c1.4,0,2.5,1.1,2.5,2.5v3.2c0,0.8,0.4,1.5,1,2l2,1.6l0,0l0,0c0.9,0.7,2.1,0.6,3,0l2.1-1.6c0.6-0.5,1-1.2,1-2v-3.2
			c0-1.4,1.1-2.5,2.5-2.5h1.1c1.4,0,2.5,1.1,2.5,2.5v5.5c0,0.8-0.4,1.5-1,2l-5.6,4.3c-0.6,0.5-1,1.2-1,2v4.2c0,2-2.3,3.2-4,2
			l-1.1-0.8C425.9,126.2,425.5,125.4,425.5,124.6z"/>
	</g>
</g>
<g>
	<g>
		<path class="st1" d="M131.8,12.9h47.9c3.8,0,5.8,4.6,3.1,7.4l-42.6,42.6c-0.8,0.8-1.3,1.9-1.3,3v7.8c0,1.1-0.5,2.2-1.3,3l-2.8,2.8
			c-2.7,2.7-7.4,0.8-7.4-3l0-59.3C127.5,14.8,129.4,12.9,131.8,12.9z M151.2,24.3h-8c-2.4,0-4.3,1.9-4.3,4.3v8
			c0,3.8,4.6,5.8,7.4,3.1l8-8C156.9,29,155,24.3,151.2,24.3z"/>
		<path class="st1" d="M148.4,66.1l45.8-45.8c2.7-2.7,7.4-0.8,7.4,3v45.8c0,2.4-1.9,4.3-4.3,4.3h-2.4c-2.4,0-4.3-1.9-4.3-4.3V50.9
			c0-3.8-4.6-5.8-7.4-3l-7.3,7.3c-2.7,2.7-0.8,7.4,3.1,7.4h1.8c2.4,0,4.3,1.9,4.3,4.3v2.4c0,2.4-1.9,4.3-4.3,4.3h-29.3
			C147.6,73.5,145.6,68.9,148.4,66.1z"/>
		<path class="st1" d="M237.5,65.6V57c0-1.1-0.5-2.2-1.3-3l-7.9-7.9c-1.7-1.7-1.7-4.4,0-6.1l7.9-7.9c0.8-0.8,1.3-1.9,1.3-3v0
			c0-2.4-1.9-4.3-4.3-4.3h-9.7c-2.4,0-4.3,1.9-4.3,4.3v40.1c0,2.4-1.9,4.3-4.3,4.3h-3.6c-2.4,0-4.3-1.9-4.3-4.3V16.9
			c0-2.4,1.9-4.3,4.3-4.3h34c2.4,0,4.3,1.9,4.3,4.3v18.3c0,1.1-0.5,2.2-1.3,3l-1.8,1.8c-1.7,1.7-1.7,4.4,0,6.1l1.8,1.8
			c0.8,0.8,1.3,1.9,1.3,3v18.1c0,3.9-4.7,5.8-7.4,3l-3.5-3.5C237.9,67.9,237.5,66.8,237.5,65.6z"/>
		<path class="st1" d="M255.7,73.5V16.9c0-2.4,1.9-4.3,4.3-4.3h3.6c2.4,0,4.3,1.9,4.3,4.3v52.2c0,2.4-1.9,4.3-4.3,4.3L255.7,73.5
			L255.7,73.5z M286.2,65.6V57c0-1.2-0.5-2.3-1.3-3.1l-7.8-7.8c-1.7-1.7-1.7-4.4,0-6.1l7.9-7.9c0.8-0.8,1.3-1.9,1.3-3V16.9
			c0-2.4,1.9-4.3,4.3-4.3h3.6c2.4,0,4.3,1.9,4.3,4.3v18.3c0,1.1-0.5,2.2-1.3,3l-1.8,1.8c-1.7,1.7-1.7,4.4,0,6.1l1.8,1.8
			c0.8,0.8,1.3,1.9,1.3,3v18.2c0,3.8-4.6,5.8-7.4,3l-3.6-3.6C286.7,67.9,286.2,66.8,286.2,65.6z"/>
		<path class="st1" d="M304.4,73.5V16.9c0-2.4,1.9-4.3,4.3-4.3h3.6c2.4,0,4.3,1.9,4.3,4.3v52.2c0,2.4-1.9,4.3-4.3,4.3L304.4,73.5
			L304.4,73.5z"/>
		<path class="st1" d="M322.7,73.5V23c0-3.8,4.6-5.8,7.4-3l15.7,15.7c2.7,2.7,7.4,0.8,7.4-3V16.9c0-2.4,1.9-4.3,4.3-4.3h3.6
			c2.4,0,4.3,1.9,4.3,4.3V63c0,3.8-4.6,5.8-7.4,3l-15.7-15.7c-2.7-2.7-7.4-0.8-7.4,3v15.7c0,2.4-1.9,4.3-4.3,4.3L322.7,73.5
			L322.7,73.5z"/>
		<path class="st1" d="M382.2,72.2l-9.7-9.7c-0.8-0.8-1.3-1.9-1.3-3V16.9c0-2.4,1.9-4.3,4.3-4.3h34c3.8,0,5.8,4.6,3.1,7.4l-3.6,3.6
			c-0.8,0.8-1.9,1.3-3,1.3h-18.2c-2.4,0-4.3,1.9-4.3,4.3v24.3c0,1.1,0.5,2.2,1.3,3l3.6,3.6c0.8,0.8,1.9,1.3,3,1.3h6.1
			c2.4,0,4.3-1.9,4.3-4.3V41.3c0-3.8,4.6-5.8,7.4-3l3.6,3.6c0.8,0.8,1.3,1.9,1.3,3v24.3c0,2.4-1.9,4.3-4.3,4.3h-24.4
			C384.1,73.5,383,73,382.2,72.2z"/>
	</g>
</g>
</svg>
