<?xml version="1.0" encoding="utf-8"?>
<!-- Generator: Adobe Illustrator 22.1.0, SVG Export Plug-In . SVG Version: 6.00 Build 0)  -->
<svg version="1.1" id="Layer_1" xmlns="http://www.w3.org/2000/svg" xmlns:xlink="http://www.w3.org/1999/xlink" x="0px" y="0px"
	 viewBox="0 0 440.8 145.7" style="enable-background:new 0 0 440.8 145.7;" xml:space="preserve">
<style type="text/css">
	.st0{fill:none;stroke:#0060AE;stroke-width:14;stroke-miterlimit:10;}
	.st1{fill:#0060AE;stroke:#0060AE;stroke-miterlimit:10;}
	.st2{fill:#4C4C4C;}
	.st3{font-family:'CooperBlack';}
	.st4{font-size:42.0509px;}
	.st5{font-size:18.1307px;}
	.st6{fill:none;}
</style>
<g>
	<g id="Layer_2_1_">
		<g>
			<path class="st0" d="M73.1,10.7"/>
			<path class="st0" d="M71.4,65"/>
			<g>
				<path class="st1" d="M57.4,113.1c0-3.2,2.6-5.8,5.8-5.8c3.2,0,5.8,2.6,5.8,5.8c0,3.2-2.6,5.8-5.8,5.8
					C60,118.9,57.4,116.3,57.4,113.1z"/>
				<path class="st0" d="M25,34.8l56.1,0.3h1.4c16.8,0,30.4,13.4,30.4,30c0,16.5-13.6,30-30.4,30h-1.3H67.3h-4.1v2.5v10.9"/>
				<path class="st0" d="M135.4,73.1"/>
			</g>
			<g>
				<path class="st0" d="M43.5,127.5l0-3.7v-1.1V76.9c0-2.3,2.2-2,2.2-2h33.4l3.1,0c6,0,10.8-4.4,10.8-9.9c0-5.5-5.4-9.7-11.4-9.7
					h-1.5l-30.3-0.2"/>
				<path class="st1" d="M39.7,55.2c0-3.2,2.6-5.8,5.8-5.8c3.2,0,5.8,2.6,5.8,5.8c0,3.2-2.6,5.8-5.8,5.8
					C42.3,61,39.7,58.4,39.7,55.2z"/>
			</g>
		</g>
		<ellipse class="st0" cx="73.8" cy="73.2" rx="61.8" ry="62.6"/>
	</g>
	<text transform="matrix(1.2565 0 0 1 167 67.7)" class="st2 st3 st4">PARKING</text>
	<text transform="matrix(0.9549 0 0 1 207.4759 99.4146)" class="st2 st3 st5">CRYPTOCURRENCY</text>
	<rect x="267" y="82" class="st6" width="6" height="8.7"/>
</g>
</svg>
