<?xml version="1.0" encoding="utf-8"?>
<!-- Generator: Adobe Illustrator 22.1.0, SVG Export Plug-In . SVG Version: 6.00 Build 0)  -->
<svg version="1.1" id="Layer_1" xmlns="http://www.w3.org/2000/svg" xmlns:xlink="http://www.w3.org/1999/xlink" x="0px" y="0px"
	 viewBox="0 0 440.8 145.7" style="enable-background:new 0 0 440.8 145.7;" xml:space="preserve">
<style type="text/css">
	.st0{fill:url(#SVGID_1_);}
	.st1{fill:#4C4C4C;}
</style>
<g>
	<linearGradient id="SVGID_1_" gradientUnits="userSpaceOnUse" x1="3.2134" y1="73" x2="102.613" y2="73">
		<stop  offset="0" style="stop-color:#CCE0F4"/>
		<stop  offset="6.405089e-02" style="stop-color:#C3DCF2"/>
		<stop  offset="0.1706" style="stop-color:#A9D2EE"/>
		<stop  offset="0.3066" style="stop-color:#80C2E7"/>
		<stop  offset="0.4649" style="stop-color:#47ACDE"/>
		<stop  offset="0.5674" style="stop-color:#1E9CD7"/>
		<stop  offset="0.8652" style="stop-color:#0075BE"/>
		<stop  offset="0.9944" style="stop-color:#005B97"/>
	</linearGradient>
	<path class="st0" d="M3.2,144V2h99.4v56.8l-56.8,56.8V73l28.4-28.4V30.4H31.6V144H3.2z"/>
</g>
<g>
	<g>
		<path class="st1" d="M107.5,128.3l-6.1-4.6v-18.5h21.3v4.6h-15.2v11.5l3,2.3h12.2v4.6H107.5z"/>
		<path class="st1" d="M141,125.9v-4.6l-6.1-4.6l6.1-4.6v-2.3h-9.1v18.5h-6.1v-23.1h21.3v9.2l-3,2.3l3,2.3v11.5L141,125.9z"/>
		<path class="st1" d="M157.7,125.9v-5.8l-7.6-5.8v-9.2h6.1v6.9l3,2.3v0l1.5,1.1l4.6-3.5v-6.9h6.1v9.2l-7.6,5.8v10.4L157.7,125.9z"
			/>
		<path class="st1" d="M174.5,128.3v-23.1h21.3v9.2l-12.2,9.2v-6.9l6.1-4.6v-2.3h-9.1v18.5H174.5z"/>
		<path class="st1" d="M206.4,125.9v-16.2h-7.6v-4.6h21.3v4.6h-7.6v20.8L206.4,125.9z"/>
		<path class="st1" d="M229.2,128.3l-6.1-4.6v-18.5h21.3v23.1H229.2z M238.4,123.6v-13.9h-9.1v11.5l3,2.3H238.4z"/>
		<path class="st1" d="M253.6,128.3l-6.1-4.6v-18.5h21.3v4.6h-15.2v11.5l3,2.3h12.2v4.6H253.6z"/>
		<path class="st1" d="M277.9,128.3l-6.1-4.6v-18.5h6.1v16.2l3,2.3h6.1v-18.5h6.1v23.1H277.9z"/>
		<path class="st1" d="M311.4,125.9v-4.6l-6.1-4.6l6.1-4.6v-2.3h-9.1v18.5h-6.1v-23.1h21.3v9.2l-3,2.3l3,2.3v11.5L311.4,125.9z"/>
		<path class="st1" d="M335.7,125.9v-4.6l-6.1-4.6l6.1-4.6v-2.3h-9.1v18.5h-6.1v-23.1h21.3v9.2l-3,2.3l3,2.3v11.5L335.7,125.9z"/>
		<path class="st1" d="M344.8,128.3v-23.1h21.3v4.6h-15.2v4.6h15.2l-6.1,4.6h-9.1v4.6h12.2l6.1,4.6H344.8z"/>
		<path class="st1" d="M369.2,128.3v-23.1l15.2,11.5v-11.5h6.1v23.1l-15.2-11.5v11.5H369.2z"/>
		<path class="st1" d="M399.6,128.3l-6.1-4.6v-18.5h21.3v4.6h-15.2v11.5l3,2.3h12.2v4.6H399.6z"/>
		<path class="st1" d="M425.5,125.9v-5.8l-7.6-5.8v-9.2h6.1v6.9l3,2.3v0l1.5,1.1l4.6-3.5v-6.9h6.1v9.2l-7.6,5.8v10.4L425.5,125.9z"
			/>
	</g>
</g>
<g>
	<g>
		<path class="st1" d="M127.5,12.9h62.6l-51.2,51.2v11.4l-11.4,11.4V12.9z M161.6,24.3h-22.8V47L161.6,24.3z"/>
		<path class="st1" d="M141,73.5L201.5,13v60.5h-11v-33l-22,22H185v11H141z"/>
		<path class="st1" d="M237.5,67.4V55.2l-12.2-12.2l12.2-12.2v-6.1h-18.3v48.7h-12.2V12.6h42.6V37l-6.1,6.1l6.1,6.1v30.4L237.5,67.4
			z"/>
		<path class="st1" d="M255.7,73.5V12.6h12.2v60.8H255.7z M286.2,67.4V55.2L274,43.1l12.2-12.2V12.6h12.2V37l-6.1,6.1l6.1,6.1v30.4
			L286.2,67.4z"/>
		<path class="st1" d="M304.4,73.5V12.6h12.2v60.8H304.4z"/>
		<path class="st1" d="M322.7,73.5V12.6l30.4,30.4V12.6h12.2v60.8l-30.4-30.4v30.4H322.7z"/>
		<path class="st1" d="M383.5,73.5l-12.2-12.2V12.6H420l-12.2,12.2h-24.3v30.4l6.1,6.1h12.2V30.9l12.2,12.2v30.4H383.5z"/>
	</g>
</g>
</svg>
