<?xml version="1.0" encoding="UTF-8"?>
<svg width="418px" height="49px" viewBox="0 0 418 49" version="1.1" xmlns="http://www.w3.org/2000/svg" xmlns:xlink="http://www.w3.org/1999/xlink">
    <!-- Generator: Sketch 49.3 (51167) - http://www.bohemiancoding.com/sketch -->
    <title>Logo</title>
    <desc>Created with Sketch.</desc>
    <defs>
        <polygon id="path-1" points="0 0.561386667 48.3415794 0.561386667 48.3415794 48.13232 0 48.13232"></polygon>
        <polygon id="path-3" points="1.99211833 2.03477333 10.1581235 2.03477333 10.1581235 10.1333333 1.99211833 10.1333333"></polygon>
        <polygon id="path-5" points="1.96080853 2.24504 10.4119111 2.24504 10.4119111 50.6666667 1.96080853 50.6666667"></polygon>
        <polygon id="path-7" points="1.64516494 2.24504 26.0286322 2.24504 26.0286322 50.6666667 1.64516494 50.6666667"></polygon>
    </defs>
    <g id="Logo" stroke="none" stroke-width="1" fill="none" fill-rule="evenodd">
        <g id="Page-1" transform="translate(0.000000, -2.000000)">
            <g id="Group-3" transform="translate(0.000000, 2.821880)">
                <mask id="mask-2" fill="white">
                    <use xlink:href="#path-1"></use>
                </mask>
                <g id="Clip-2"></g>
                <path d="M4.32457173,0.561386667 L4.49512109,0.561386667 C5.86206147,0.561386667 7.06608904,1.21245333 8.10974929,2.51458667 C8.48903071,3.02378667 13.1447737,8.91378667 22.0795237,20.1845867 C23.4642826,21.9021867 24.1668442,22.77112 24.1846628,22.7888533 C30.6731749,14.6517867 36.2122108,7.67752 40.8017704,1.86352 C41.7512467,0.994586667 42.7567243,0.561386667 43.8182031,0.561386667 L44.1007551,0.561386667 C45.5618794,0.561386667 46.776089,1.27832 47.7433839,2.71218667 C48.1430294,3.42912 48.3415794,4.14858667 48.3415794,4.86552 C48.3415794,6.10938667 47.763748,7.34818667 46.6055397,8.57432 L27.2570967,32.95512 C26.3279846,33.7860533 25.3046884,34.20152 24.1846628,34.20152 C22.5733531,34.20152 21.2827781,33.46432 20.3154833,31.9924533 L8.90649481,17.66392 L8.90649481,43.60272 C8.90649481,45.75352 7.90101724,47.2177867 5.89006212,47.9929867 C5.60496468,48.08672 5.39623263,48.13232 5.26386596,48.13232 L3.84092429,48.13232 C3.13836276,48.13232 2.32379865,47.7269867 1.39468647,46.91632 C0.559758269,46.02712 0.142294167,44.9605867 0.142294167,43.71672 L0.142294167,6.08152 L-0.000254551282,4.92125333 C-0.000254551282,3.27965333 0.78630891,1.98512 2.36198135,1.04272 C3.00599609,0.720986667 3.66019288,0.561386667 4.32457173,0.561386667" id="Fill-1" fill="#F1F1F2" mask="url(#mask-2)"></path>
            </g>
            <path d="M126.540242,37.7033467 C126.540242,39.08148 125.865681,40.37348 124.521651,41.58188 C124.521651,41.65788 123.819089,42.35708 122.413966,43.6769467 C117.36876,48.1128133 111.488625,50.3320133 104.773562,50.3320133 C95.7064456,50.3320133 88.2506385,46.3496133 82.4112321,38.38228 C81.4413917,36.9661467 80.6370097,35.5500133 79.9904494,34.13388 C79.4406187,32.8697467 78.9849719,31.5676133 78.6260546,30.22748 C78.1322251,28.0944133 77.8853103,26.4528133 77.8853103,25.3001467 L77.8853103,21.4773467 C77.8853103,19.5140133 78.4173225,16.9756133 79.4788013,13.8596133 C80.2195456,12.0660133 81.0442917,10.4700133 81.9530398,9.07414667 C82.6759654,7.90374667 83.984359,6.32801333 85.8807661,4.34694667 C86.753877,3.55401333 87.7389904,3.15628 88.838652,3.15628 L88.9251994,3.15628 C90.5950558,3.15628 91.911086,3.96948 92.8809263,5.59081333 C93.1838424,6.23428 93.3365731,6.92334667 93.3365731,7.65801333 C93.3365731,8.64094667 92.9929289,9.56561333 92.3107315,10.4345467 C88.650284,13.92548 86.8200603,18.25748 86.8200603,23.4305467 C86.8200603,29.52828 89.4470296,34.47588 94.700968,38.26828 C97.6613994,40.2696133 101.036749,41.27028 104.829564,41.27028 C110.483148,41.27028 115.225438,38.9497467 119.056435,34.3061467 C119.985547,33.5689467 120.980842,33.2016133 122.044867,33.2016133 C123.714723,33.2016133 125.040935,33.9945467 126.028594,35.5804133 C126.369693,36.27708 126.540242,36.9864133 126.540242,37.7033467" id="Fill-4" fill="#F1F1F2"></path>
            <path d="M190.768367,2.53358667 L191.081465,2.53358667 C192.369495,2.53358667 193.489521,3.19478667 194.438997,4.51465333 C194.797914,5.19612 194.978646,5.90292 194.978646,6.64012 C194.978646,8.09172 194.258265,9.27225333 192.817505,10.1791867 C192.170945,10.4806533 191.582931,10.6326533 191.053465,10.6326533 L190.740367,10.6326533 C189.355608,10.6326533 188.217763,9.93345333 187.324288,8.53758667 C186.98319,7.87638667 186.81264,7.21518667 186.81264,6.55398667 C186.81264,5.09985333 187.515202,3.92945333 188.917779,3.04278667 C189.546521,2.70332 190.15999,2.53358667 190.768367,2.53358667" id="Fill-6" fill="#1E8DE0"></path>
            <g id="Group-10" transform="translate(38.182692, 40.821880)">
                <mask id="mask-4" fill="white">
                    <use xlink:href="#path-3"></use>
                </mask>
                <g id="Clip-9"></g>
                <path d="M5.94784526,2.03477333 L6.26094333,2.03477333 C7.55151833,2.03477333 8.66899846,2.69597333 9.61847474,4.01584 C9.97739205,4.69730667 10.1581235,5.40410667 10.1581235,6.14130667 C10.1581235,7.59290667 9.43774333,8.77344 7.99698308,9.68037333 C7.35296833,9.98184 6.76240936,10.13384 6.23294269,10.13384 L5.91984462,10.13384 C4.53508564,10.13384 3.39724141,9.43464 2.50376641,8.03877333 C2.16521321,7.37757333 1.99211833,6.71637333 1.99211833,6.05517333 C1.99211833,4.60104 2.69467987,3.43064 4.09725744,2.54397333 C4.7259991,2.20450667 5.34201321,2.03477333 5.94784526,2.03477333" id="Fill-8" fill="#1E8DE0" mask="url(#mask-4)"></path>
            </g>
            <g id="Group-13" transform="translate(236.732692, 0.288547)">
                <mask id="mask-6" fill="white">
                    <use xlink:href="#path-5"></use>
                </mask>
                <g id="Clip-12"></g>
                <path d="M6.02853801,2.24504 L6.34163609,2.24504 C7.78239635,2.24504 8.97878737,2.95184 9.92571814,4.36797333 C10.2489983,5.01144 10.4119111,5.62450667 10.4119111,6.20970667 L10.4119111,46.7025067 C10.4119111,48.4023733 9.52861814,49.6563733 7.76457776,50.4695733 C7.36493224,50.6013067 7.09001686,50.6671733 6.9398316,50.6671733 L5.4303425,50.6671733 C4.74814506,50.6671733 3.93358096,50.23144 2.98410468,49.36504 C2.30190724,48.5721067 1.96080853,47.6449067 1.96080853,46.5885067 L1.96080853,6.35157333 C1.96080853,4.57570667 2.8695566,3.28370667 4.69214378,2.47050667 C5.18342776,2.32104 5.63143801,2.24504 6.02853801,2.24504" id="Fill-11" fill="#F1F1F2" mask="url(#mask-6)"></path>
            </g>
            <path d="M290.970698,15.7854533 C290.970698,14.40732 291.645259,13.11532 292.989289,11.90692 C292.989289,11.83092 293.691851,11.13172 295.096974,9.81185333 C300.14218,5.37598667 306.022315,3.15678667 312.737378,3.15678667 C321.804494,3.15678667 329.257756,7.13918667 335.099708,15.10652 C336.069548,16.5226533 336.87393,17.9387867 337.520491,19.35492 C338.070321,20.6190533 338.525968,21.9211867 338.884885,23.26132 C339.378715,25.3943867 339.62563,27.0359867 339.62563,28.1886533 L339.62563,32.0114533 C339.62563,33.9747867 339.093618,36.5131867 338.032139,39.6291867 C337.291394,41.4227867 336.466648,43.0187867 335.5579,44.4146533 C334.834975,45.5850533 333.526581,47.1607867 331.630174,49.1418533 C330.757063,49.9347867 329.77195,50.33252 328.672288,50.33252 L328.585741,50.33252 C326.915884,50.33252 325.597309,49.51932 324.630014,47.8979867 C324.327098,47.25452 324.174367,46.5654533 324.174367,45.8307867 C324.174367,44.8478533 324.515466,43.9231867 325.200209,43.0542533 C328.860656,39.56332 330.69088,35.2287867 330.69088,30.0582533 C330.69088,23.96052 328.06391,19.01292 322.809972,15.2179867 C319.849541,13.2191867 316.474191,12.21852 312.678831,12.21852 C307.027793,12.21852 302.285502,14.5390533 298.45196,19.1826533 C297.525393,19.9198533 296.527552,20.2871867 295.466073,20.2871867 C293.796217,20.2871867 292.467459,19.4942533 291.482346,17.9083867 C291.141247,17.2091867 290.970698,16.5023867 290.970698,15.7854533" id="Fill-14" fill="#F1F1F2"></path>
            <path d="M374.603267,40.337 L374.888364,40.337 C376.614222,40.337 378.075346,41.1476667 379.269192,42.7715333 C379.839387,43.7139333 380.121939,44.6031333 380.121939,45.4340667 L380.121939,45.8292667 C380.121939,47.5291333 379.325193,48.963 377.731702,50.1334 C376.840773,50.6806 376.11021,50.9542 375.542561,50.9542 L373.94907,50.9542 C373.114142,50.9542 372.118846,50.483 370.960638,49.5380667 C369.899159,48.3676667 369.367147,47.1694 369.367147,45.9432667 L369.367147,45.5176667 C369.367147,43.8938 370.118073,42.4979333 371.614835,41.3275333 C372.564311,40.6663333 373.559607,40.337 374.603267,40.337" id="Fill-16" fill="#1E8DE0"></path>
            <g id="Group-20" transform="translate(152.730769, 0.288547)">
                <mask id="mask-8" fill="white">
                    <use xlink:href="#path-7"></use>
                </mask>
                <g id="Clip-19"></g>
                <path d="M5.60089186,2.24504 L22.1034515,2.24504 C23.4882104,2.24504 24.6362367,2.95184 25.5449848,4.36797333 C25.8682649,5.01144 26.0286322,5.62450667 26.0286322,6.20970667 L26.0286322,46.75824 C26.0286322,48.2681067 25.2624329,49.4689067 23.7249431,50.3555733 C23.2132951,50.5633067 22.8518322,50.6671733 22.6431002,50.6671733 L21.2507047,50.6671733 C20.5863258,50.6291733 19.8379451,50.2517067 19.0030169,49.5347733 C18.244454,48.74184 17.8626271,47.68544 17.8626271,46.36304 L17.8626271,10.3441067 L5.54489058,10.3441067 C4.27467968,10.3441067 3.16229058,9.69050667 2.21535981,8.38837333 C1.8360784,7.61570667 1.64516494,6.91650667 1.64516494,6.29330667 C1.64516494,4.89744 2.29172519,3.74477333 3.58230019,2.83784 C4.26449763,2.44264 4.93651301,2.24504 5.60089186,2.24504" id="Fill-18" fill="#F1F1F2" mask="url(#mask-8)"></path>
            </g>
            <path d="M373.749502,3.10004 C375.154625,3.10004 376.452836,3.81697333 377.646682,5.25084 C388.516022,16.0681733 398.873713,26.3661733 408.717211,36.14484 L408.747758,36.14484 L408.747758,7.48777333 C408.747758,5.67644 409.648869,4.32617333 411.451092,3.43950667 C412.018742,3.21150667 412.596573,3.10004 413.187132,3.10004 C414.666075,3.10004 415.887921,3.79670667 416.857761,5.19510667 C417.27268,5.89430667 417.481412,6.60110667 417.481412,7.32057333 L417.481412,46.8507067 C417.481412,48.2465733 416.789033,49.4271067 415.404274,50.3897733 C414.74244,50.7647067 414.218065,50.9547067 413.841329,50.9547067 L412.390386,50.9547067 C411.723462,50.9547067 410.91908,50.5493733 409.969604,49.7387067 C408.755394,48.4543067 401.605049,41.3179067 388.516022,28.3295067 C377.096851,16.9649733 371.046167,10.9331067 370.36397,10.2339067 C369.699591,9.38524 369.368674,8.51884 369.368674,7.62964 L369.368674,7.20657333 C369.368674,5.96017333 370.002507,4.83790667 371.275263,3.83724 C372.089827,3.34577333 372.914574,3.10004 373.749502,3.10004" id="Fill-21" fill="#F1F1F2"></path>
        </g>
    </g>
</svg>