<?xml version="1.0" encoding="utf-8"?>
<!-- Generator: Adobe Illustrator 22.1.0, SVG Export Plug-In . SVG Version: 6.00 Build 0)  -->
<svg version="1.1" id="Layer_1" xmlns="http://www.w3.org/2000/svg" xmlns:xlink="http://www.w3.org/1999/xlink" x="0px" y="0px"
	 viewBox="0 0 417.3 138.2" style="enable-background:new 0 0 417.3 138.2;" xml:space="preserve">
<style type="text/css">
	.st0{fill:#F4F4F4;}
</style>
<g>
	<g>
		<path class="st0" d="M1.1,136.9V2h94.4v54l-54,54V69.5l27-27V29H28.1v107.9H1.1z"/>
	</g>
</g>
<g>
	<g>
		<path class="st0" d="M100.2,121.9l-5.8-4.4V100h20.2v4.4h-14.5v11l2.9,2.2h11.6v4.4H100.2z"/>
		<path class="st0" d="M132,119.7v-4.4l-5.8-4.4l5.8-4.4v-2.2h-8.7v17.5h-5.8V100h20.2v8.8l-2.9,2.2l2.9,2.2v11L132,119.7z"/>
		<path class="st0" d="M147.9,119.7v-5.5l-7.2-5.5V100h5.8v6.6l2.9,2.2v0l1.4,1.1l4.3-3.3V100h5.8v8.8l-7.2,5.5v9.9L147.9,119.7z"/>
		<path class="st0" d="M163.8,121.9V100h20.2v8.8l-11.6,8.8V111l5.8-4.4v-2.2h-8.7v17.5H163.8z"/>
		<path class="st0" d="M194.2,119.7v-15.4H187V100h20.2v4.4H200v19.7L194.2,119.7z"/>
		<path class="st0" d="M215.9,121.9l-5.8-4.4V100h20.2v21.9H215.9z M224.5,117.6v-13.2h-8.7v11l2.9,2.2H224.5z"/>
		<path class="st0" d="M239,121.9l-5.8-4.4V100h20.2v4.4H239v11l2.9,2.2h11.6v4.4H239z"/>
		<path class="st0" d="M262.1,121.9l-5.8-4.4V100h5.8v15.4l2.9,2.2h5.8V100h5.8v21.9H262.1z"/>
		<path class="st0" d="M293.9,119.7v-4.4l-5.8-4.4l5.8-4.4v-2.2h-8.7v17.5h-5.8V100h20.2v8.8l-2.9,2.2l2.9,2.2v11L293.9,119.7z"/>
		<path class="st0" d="M317,119.7v-4.4l-5.8-4.4l5.8-4.4v-2.2h-8.7v17.5h-5.8V100h20.2v8.8l-2.9,2.2l2.9,2.2v11L317,119.7z"/>
		<path class="st0" d="M325.7,121.9V100h20.2v4.4h-14.5v4.4h14.5l-5.8,4.4h-8.7v4.4H343l5.8,4.4H325.7z"/>
		<path class="st0" d="M348.8,121.9V100l14.5,11v-11h5.8v21.9l-14.5-11v11H348.8z"/>
		<path class="st0" d="M377.7,121.9l-5.8-4.4V100h20.2v4.4h-14.5v11l2.9,2.2h11.6v4.4H377.7z"/>
		<path class="st0" d="M402.3,119.7v-5.5l-7.2-5.5V100h5.8v6.6l2.9,2.2v0l1.4,1.1l4.3-3.3V100h5.8v8.8l-7.2,5.5v9.9L402.3,119.7z"/>
	</g>
</g>
<g>
	<g>
		<path class="st0" d="M119.2,12.4h59.4L130,61v10.8l-10.8,10.8V12.4z M151.6,23.2H130v21.6L151.6,23.2z"/>
		<path class="st0" d="M132.1,69.9l57.5-57.5v57.5h-10.4V38.6l-20.9,20.9h15.7v10.4H132.1z"/>
		<path class="st0" d="M223.7,64.1V52.6L212.1,41l11.6-11.6v-5.8h-17.3v46.2h-11.6V12.1h40.5v23.1l-5.8,5.8l5.8,5.8v28.9L223.7,64.1
			z"/>
		<path class="st0" d="M241,69.9V12.1h11.6v57.8H241z M269.9,64.1V52.6L258.4,41l11.6-11.6V12.1h11.6v23.1l-5.8,5.8l5.8,5.8v28.9
			L269.9,64.1z"/>
		<path class="st0" d="M287.3,69.9V12.1h11.6v57.8H287.3z"/>
		<path class="st0" d="M304.6,69.9V12.1L333.5,41V12.1h11.6v57.8L316.2,41v28.9H304.6z"/>
		<path class="st0" d="M362.4,69.9l-11.6-11.6V12.1h46.2l-11.6,11.6h-23.1v28.9l5.8,5.8h11.6V29.4L391.3,41v28.9H362.4z"/>
	</g>
</g>
</svg>
