<?xml version="1.0" encoding="utf-8"?>
<!-- Generator: Adobe Illustrator 23.0.0, SVG Export Plug-In . SVG Version: 6.00 Build 0)  -->
<svg version="1.1" id="Layer_1" xmlns="http://www.w3.org/2000/svg" xmlns:xlink="http://www.w3.org/1999/xlink" x="0px" y="0px"
	 viewBox="0 0 417.3 138.2" style="enable-background:new 0 0 417.3 138.2;" xml:space="preserve">
<style type="text/css">
	.st0{fill:#F4F4F4;}
</style>
<g>
	<g>
		<path class="st0" d="M1.1,127.4V11.5C1.1,6.3,5.4,2,10.6,2H86c5.3,0,9.5,4.3,9.5,9.5V52c0,2.5-1,5-2.8,6.7L57.8,93.7
			c-6,6-16.3,1.8-16.3-6.7V73.5c0-2.5,1-5,2.8-6.7l21.4-21.4c1.8-1.8,2.8-4.2,2.8-6.7v0c0-5.3-4.3-9.5-9.5-9.5H37.6
			c-5.3,0-9.5,4.3-9.5,9.5v88.8c0,5.3-4.3,9.5-9.5,9.5h-7.9C5.4,136.9,1.1,132.6,1.1,127.4z"/>
	</g>
</g>
<g>
	<g>
		<path class="st0" d="M100.2,121.9l-4.9-3.7c-0.5-0.4-0.9-1.1-0.9-1.8v-14.2c0-1.2,1-2.2,2.2-2.2h15.8c1.2,0,2.2,1,2.2,2.2v0
			c0,1.2-1,2.2-2.2,2.2h-10.1c-1.2,0-2.2,1-2.2,2.2v7.7c0,0.7,0.3,1.3,0.9,1.8l1.4,1.1c0.4,0.3,0.8,0.4,1.3,0.4h8.7
			c1.2,0,2.2,1,2.2,2.2v0c0,1.2-1,2.2-2.2,2.2L100.2,121.9L100.2,121.9z"/>
		<path class="st0" d="M132,119v-3c0-0.5-0.2-0.9-0.6-1.2l-3.7-2.8c-0.8-0.6-0.8-1.8,0-2.3l3.7-2.8c0.4-0.3,0.6-0.7,0.6-1.2l0,0
			c0-0.8-0.7-1.5-1.5-1.5h-5.8c-0.8,0-1.5,0.7-1.5,1.5v14.6c0,0.8-0.7,1.5-1.5,1.5H119c-0.8,0-1.5-0.7-1.5-1.5v-18.9
			c0-0.8,0.7-1.5,1.5-1.5h17.3c0.8,0,1.5,0.7,1.5,1.5v6.6c0,0.5-0.2,0.9-0.6,1.2l-0.8,0.6c-0.8,0.6-0.8,1.8,0,2.3l0.8,0.6
			c0.4,0.3,0.6,0.7,0.6,1.2v7.2c0,1.2-1.4,1.9-2.4,1.2l-2.8-2.2C132.2,119.9,132,119.4,132,119z"/>
		<path class="st0" d="M147.9,118.6v-3.2c0-0.7-0.3-1.4-0.9-1.8l-5.4-4.1c-0.6-0.4-0.9-1.1-0.9-1.8v-5.3c0-1.3,1-2.3,2.3-2.3h1.2
			c1.3,0,2.3,1,2.3,2.3v3.2c0,0.7,0.3,1.4,0.9,1.8l2,1.5l0,0l0,0c0.8,0.6,2,0.7,2.8,0l2-1.5c0.6-0.4,0.9-1.1,0.9-1.8v-3.2
			c0-1.3,1-2.3,2.3-2.3h1.2c1.3,0,2.3,1,2.3,2.3v5.4c0,0.7-0.3,1.4-0.9,1.8l-5.4,4.1c-0.6,0.4-0.9,1.1-0.9,1.8v4.1
			c0,1.9-2.2,3-3.7,1.8l-1.2-0.9C148.2,120,147.9,119.3,147.9,118.6z"/>
		<path class="st0" d="M163.8,120.4v-19c0-0.8,0.7-1.5,1.5-1.5h17.3c0.8,0,1.5,0.7,1.5,1.5v6.6c0,0.5-0.2,0.9-0.6,1.2l-8.7,6.6
			c-1,0.7-2.4,0-2.4-1.2v-2.9c0-0.5,0.2-0.9,0.6-1.2l4.6-3.5c0.4-0.3,0.6-0.7,0.6-1.2l0,0c0-0.8-0.7-1.5-1.5-1.5H171
			c-0.8,0-1.5,0.7-1.5,1.5v14.6c0,0.8-0.7,1.5-1.5,1.5h-2.8C164.5,121.9,163.8,121.2,163.8,120.4z"/>
		<path class="st0" d="M194.2,118.6v-12.2c0-1.2-1-2.1-2.1-2.1h-2.9c-1.2,0-2.1-1-2.1-2.1v0c0-1.2,1-2.1,2.1-2.1h15.9
			c1.2,0,2.1,1,2.1,2.1v0.1c0,1.2-1,2.1-2.1,2.1h-2.9c-1.2,0-2.1,1-2.1,2.1v13.2c0,1.8-2,2.8-3.4,1.7l-1.5-1.1
			C194.5,119.9,194.2,119.3,194.2,118.6z"/>
		<path class="st0" d="M214.7,121l-2.9-2.2c-1.1-0.8-1.7-2.1-1.7-3.5v-11c0-2.4,1.9-4.3,4.3-4.3H226c2.4,0,4.3,1.9,4.3,4.3v13.2
			c0,2.4-1.9,4.3-4.3,4.3h-8.6C216.4,121.9,215.5,121.6,214.7,121z M224.5,113.3v-4.5c0-2.4-1.9-4.3-4.3-4.3h0
			c-2.4,0-4.3,1.9-4.3,4.3v4.5c0,1.4,0.6,2.6,1.7,3.5l0,0c0.8,0.6,1.7,0.9,2.6,0.9l0,0C222.6,117.6,224.5,115.7,224.5,113.3z"/>
		<path class="st0" d="M239,121.9l-4.9-3.7c-0.5-0.4-0.9-1.1-0.9-1.8v-14.2c0-1.2,1-2.2,2.2-2.2h15.8c1.2,0,2.2,1,2.2,2.2v0
			c0,1.2-1,2.2-2.2,2.2h-10c-1.2,0-2.2,1-2.2,2.2v7.7c0,0.7,0.3,1.3,0.9,1.8l1.4,1.1c0.4,0.3,0.8,0.4,1.3,0.4h8.7
			c1.2,0,2.2,1,2.2,2.2v0c0,1.2-1,2.2-2.2,2.2L239,121.9L239,121.9z"/>
		<path class="st0" d="M261.3,121.3l-3.9-2.9c-0.7-0.5-1.1-1.4-1.1-2.3v-13.2c0-1.6,1.3-2.9,2.9-2.9l0,0c1.6,0,2.9,1.3,2.9,2.9V114
			c0,0.9,0.4,1.8,1.1,2.3l1,0.7c0.5,0.4,1.1,0.6,1.8,0.6h1.9c1.6,0,2.9-1.3,2.9-2.9v-11.8c0-1.6,1.3-2.9,2.9-2.9l0,0
			c1.6,0,2.9,1.3,2.9,2.9V119c0,1.6-1.3,2.9-2.9,2.9h-10.6C262.4,121.9,261.8,121.7,261.3,121.3z"/>
		<path class="st0" d="M293.9,119v-3c0-0.5-0.2-0.9-0.6-1.2l-3.7-2.8c-0.8-0.6-0.8-1.8,0-2.3l3.7-2.8c0.4-0.3,0.6-0.7,0.6-1.2l0,0
			c0-0.8-0.7-1.5-1.5-1.5h-5.8c-0.8,0-1.5,0.7-1.5,1.5v14.6c0,0.8-0.7,1.5-1.5,1.5h-2.9c-0.8,0-1.5-0.7-1.5-1.5v-18.9
			c0-0.8,0.7-1.5,1.5-1.5h17.3c0.8,0,1.5,0.7,1.5,1.5v6.6c0,0.5-0.2,0.9-0.6,1.2l-0.8,0.6c-0.8,0.6-0.8,1.8,0,2.3l0.8,0.6
			c0.4,0.3,0.6,0.7,0.6,1.2v7.2c0,1.2-1.4,1.9-2.4,1.2l-2.8-2.2C294.1,119.9,293.9,119.4,293.9,119z"/>
		<path class="st0" d="M317,119v-3c0-0.5-0.2-0.9-0.6-1.2l-3.7-2.8c-0.8-0.6-0.8-1.8,0-2.3l3.7-2.8c0.4-0.3,0.6-0.7,0.6-1.2l0,0
			c0-0.8-0.7-1.5-1.5-1.5h-5.8c-0.8,0-1.5,0.7-1.5,1.5v14.6c0,0.8-0.7,1.5-1.5,1.5H304c-0.8,0-1.5-0.7-1.5-1.5v-18.9
			c0-0.8,0.7-1.5,1.5-1.5h17.3c0.8,0,1.5,0.7,1.5,1.5v6.6c0,0.5-0.2,0.9-0.6,1.2l-0.8,0.6c-0.8,0.6-0.8,1.8,0,2.3l0.8,0.6
			c0.4,0.3,0.6,0.7,0.6,1.2v7.2c0,1.2-1.4,1.9-2.4,1.2l-2.8-2.2C317.2,119.9,317,119.4,317,119z"/>
		<path class="st0" d="M325.7,121.9v-19.7c0-1.2,1-2.2,2.2-2.2h15.8c1.2,0,2.2,1,2.2,2.2v0c0,1.2-1,2.2-2.2,2.2h-10.1
			c-1.2,0-2.2,1-2.2,2.2v0c0,1.2,1,2.2,2.2,2.2h5.8c2.1,0,3,2.7,1.3,4v0c-0.4,0.3-0.8,0.4-1.3,0.4h-5.8c-1.2,0-2.2,1-2.2,2.2v0
			c0,1.2,1,2.2,2.2,2.2h8.7c0.5,0,0.9,0.2,1.3,0.4v0c1.7,1.3,0.8,4-1.3,4h-16.6V121.9z"/>
		<path class="st0" d="M348.8,119v-13.2c0-2.4,2.7-3.8,4.7-2.3l5.2,3.9c1.9,1.4,4.7,0.1,4.7-2.3v-2.3c0-1.6,1.3-2.9,2.9-2.9l0,0
			c1.6,0,2.9,1.3,2.9,2.9v13.2c0,2.4-2.7,3.8-4.7,2.3l-5.2-3.9c-1.9-1.4-4.7-0.1-4.7,2.3v2.3c0,1.6-1.3,2.9-2.9,2.9l0,0
			C350.1,121.9,348.8,120.6,348.8,119z"/>
		<path class="st0" d="M377.7,121.9l-4.9-3.7c-0.5-0.4-0.9-1.1-0.9-1.8v-14.2c0-1.2,1-2.2,2.2-2.2h15.8c1.2,0,2.2,1,2.2,2.2v0
			c0,1.2-1,2.2-2.2,2.2h-10.1c-1.2,0-2.2,1-2.2,2.2v7.7c0,0.7,0.3,1.3,0.9,1.8l1.4,1.1c0.4,0.3,0.8,0.4,1.3,0.4h8.7
			c1.2,0,2.2,1,2.2,2.2v0c0,1.2-1,2.2-2.2,2.2L377.7,121.9L377.7,121.9z"/>
		<path class="st0" d="M402.3,118.6v-3.2c0-0.7-0.3-1.4-0.9-1.8l-5.4-4.1c-0.6-0.4-0.9-1.1-0.9-1.8v-5.3c0-1.3,1-2.3,2.3-2.3h1.2
			c1.3,0,2.3,1,2.3,2.3v3.2c0,0.7,0.3,1.4,0.9,1.8l2,1.5l0,0l0,0c0.8,0.6,2,0.7,2.8,0l2-1.5c0.6-0.4,0.9-1.1,0.9-1.8v-3.2
			c0-1.3,1-2.3,2.3-2.3h1.2c1.3,0,2.3,1,2.3,2.3v5.4c0,0.7-0.3,1.4-0.9,1.8l-5.4,4.1c-0.6,0.4-0.9,1.1-0.9,1.8v4.1
			c0,1.9-2.2,3-3.7,1.8l-1.2-0.9C402.6,120,402.3,119.3,402.3,118.6z"/>
	</g>
</g>
<g>
	<g>
		<path class="st0" d="M123.3,12.4h45.4c3.7,0,5.5,4.4,2.9,7l-40.4,40.4c-0.8,0.8-1.2,1.8-1.2,2.9v7.4c0,1.1-0.4,2.1-1.2,2.9
			l-2.6,2.6c-2.6,2.6-7,0.8-7-2.9V16.5C119.2,14.2,121,12.4,123.3,12.4z M141.7,23.2h-7.6c-2.3,0-4.1,1.8-4.1,4.1v7.6
			c0,3.7,4.4,5.5,7,2.9l7.6-7.6C147.2,27.6,145.4,23.2,141.7,23.2z"/>
		<path class="st0" d="M139.1,62.9l43.5-43.5c2.6-2.6,7-0.8,7,2.9v43.5c0,2.3-1.8,4.1-4.1,4.1h-2.2c-2.3,0-4.1-1.8-4.1-4.1V48.5
			c0-3.7-4.4-5.5-7-2.9l-6.9,6.9c-2.6,2.6-0.8,7,2.9,7h1.7c2.3,0,4.1,1.8,4.1,4.1v2.2c0,2.3-1.8,4.1-4.1,4.1H142
			C138.3,69.9,136.5,65.5,139.1,62.9z"/>
		<path class="st0" d="M223.7,62.4v-8.1c0-1.1-0.4-2.1-1.2-2.9l-7.5-7.5c-1.6-1.6-1.6-4.2,0-5.8l7.5-7.5c0.8-0.8,1.2-1.8,1.2-2.9v0
			c0-2.3-1.8-4.1-4.1-4.1h-9.1c-2.3,0-4.1,1.8-4.1,4.1v38c0,2.3-1.8,4.1-4.1,4.1h-3.4c-2.3,0-4.1-1.8-4.1-4.1V16.2
			c0-2.3,1.8-4.1,4.1-4.1h32.3c2.3,0,4.1,1.8,4.1,4.1v17.3c0,1.1-0.4,2.1-1.2,2.9l-1.7,1.7c-1.6,1.6-1.6,4.2,0,5.8l1.7,1.7
			c0.8,0.8,1.2,1.8,1.2,2.9v17.3c0,3.7-4.4,5.5-7,2.9l-3.4-3.4C224.1,64.5,223.7,63.5,223.7,62.4z"/>
		<path class="st0" d="M241,65.8V16.2c0-2.3,1.8-4.1,4.1-4.1h3.4c2.3,0,4.1,1.8,4.1,4.1v49.6c0,2.3-1.8,4.1-4.1,4.1h-3.4
			C242.8,69.9,241,68.1,241,65.8z M269.9,62.4v-8.1c0-1.1-0.4-2.1-1.2-2.9l-7.4-7.5c-1.6-1.6-1.6-4.2,0-5.8l7.5-7.5
			c0.8-0.8,1.2-1.8,1.2-2.9V16.2c0-2.3,1.8-4.1,4.1-4.1h3.4c2.3,0,4.1,1.8,4.1,4.1v17.3c0,1.1-0.4,2.1-1.2,2.9l-1.7,1.7
			c-1.6,1.6-1.6,4.2,0,5.8l1.7,1.7c0.8,0.8,1.2,1.8,1.2,2.9v17.4c0,3.6-4.4,5.5-7,2.9l-3.5-3.5C270.3,64.5,269.9,63.5,269.9,62.4z"
			/>
		<path class="st0" d="M287.3,65.8V16.2c0-2.3,1.8-4.1,4.1-4.1h3.4c2.3,0,4.1,1.8,4.1,4.1v49.6c0,2.3-1.8,4.1-4.1,4.1h-3.4
			C289.1,69.9,287.3,68.1,287.3,65.8z"/>
		<path class="st0" d="M304.6,65.8V22c0-3.7,4.4-5.5,7-2.9L326.5,34c2.6,2.6,7,0.8,7-2.9V16.2c0-2.3,1.8-4.1,4.1-4.1h3.4
			c2.3,0,4.1,1.8,4.1,4.1V60c0,3.7-4.4,5.5-7,2.9L323.2,48c-2.6-2.6-7-0.8-7,2.9v14.9c0,2.3-1.8,4.1-4.1,4.1h-3.4
			C306.4,69.9,304.6,68.1,304.6,65.8z"/>
		<path class="st0" d="M361.2,68.7l-9.2-9.2c-0.8-0.8-1.2-1.8-1.2-2.9V16.2c0-2.3,1.8-4.1,4.1-4.1h32.2c3.7,0,5.5,4.4,2.9,7
			l-3.4,3.4c-0.8,0.8-1.8,1.2-2.9,1.2h-17.3c-2.3,0-4.1,1.8-4.1,4.1v23.1c0,1.1,0.4,2.1,1.2,2.9l3.4,3.4c0.8,0.8,1.8,1.2,2.9,1.2
			h5.8c2.3,0,4.1-1.8,4.1-4.1v-15c0-3.7,4.4-5.5,7-2.9l3.4,3.4c0.8,0.8,1.2,1.8,1.2,2.9v23.1c0,2.3-1.8,4.1-4.1,4.1h-23.1
			C363,69.9,362,69.5,361.2,68.7z"/>
	</g>
</g>
</svg>
