<?xml version="1.0" encoding="utf-8"?>
<!-- Generator: Adobe Illustrator 22.1.0, SVG Export Plug-In . SVG Version: 6.00 Build 0)  -->
<svg version="1.1" id="Layer_1" xmlns="http://www.w3.org/2000/svg" xmlns:xlink="http://www.w3.org/1999/xlink" x="0px" y="0px"
	 viewBox="0 0 417.3 138.2" style="enable-background:new 0 0 417.3 138.2;" xml:space="preserve">
<style type="text/css">
	.st0{fill:none;stroke:#F4F4F4;stroke-width:14;stroke-miterlimit:10;}
	.st1{fill:#F4F4F4;stroke:#F4F4F4;stroke-miterlimit:10;}
	.st2{fill:#F4F4F4;}
	.st3{font-family:'CooperBlack';}
	.st4{font-size:31.8823px;}
	.st5{font-size:13.7464px;}
</style>
<g id="Layer_2_1_">
	<g>
		<path class="st0" d="M68.7,11.6"/>
		<path class="st0" d="M67.1,62"/>
		<g>
			<path class="st1" d="M54.1,106.5c0-3,2.4-5.4,5.4-5.4c3,0,5.4,2.4,5.4,5.4c0,3-2.4,5.4-5.4,5.4C56.5,111.9,54.1,109.5,54.1,106.5
				z"/>
			<path class="st0" d="M24.1,34l52,0.3h1.3c15.6,0,28.2,12.4,28.2,27.8c0,15.3-12.6,27.8-28.2,27.8h-1.2H63.2h-3.8v2.3v10.1"/>
			<path class="st0" d="M126.5,69.5"/>
		</g>
		<g>
			<path class="st0" d="M41.3,119.9l0-3.5v-1V73c0-2.2,2-1.9,2-1.9h31l2.9,0c5.6,0,10.1-4.1,10.1-9.2s-5-9-10.5-9h-1.4l-28.1-0.2"/>
			<path class="st1" d="M37.7,52.8c0-3,2.4-5.4,5.4-5.4c3,0,5.4,2.4,5.4,5.4c0,3-2.4,5.4-5.4,5.4C40.1,58.2,37.7,55.8,37.7,52.8z"/>
		</g>
	</g>
	<ellipse class="st0" cx="69.3" cy="69.5" rx="57.3" ry="58"/>
</g>
<text transform="matrix(1.5787 0 0 1 153.6427 68.1112)" class="st2 st3 st4">PARKING</text>
<text transform="matrix(1.1998 0 0 1 192.2003 92.1571)" class="st2 st3 st5">CRYPTOCURRENCY</text>
<rect x="248.9" y="79" class="st2" width="5.7" height="6.6"/>
</svg>
